<?xml version="1.0" encoding="UTF-8"?>
<svg width="19px" height="19px" viewBox="0 0 19 19" version="1.1" xmlns="http://www.w3.org/2000/svg" xmlns:xlink="http://www.w3.org/1999/xlink">
    <!-- Generator: Sketch 49.3 (51167) - http://www.bohemiancoding.com/sketch -->
    <title>Group</title>
    <desc>Created with Sketch.</desc>
    <defs></defs>
    <g id="组件" stroke="none" stroke-width="1" fill="none" fill-rule="evenodd">
        <g id="小图标/通用线形/搜索" transform="translate(-2.000000, -3.000000)">
            <g id="Group">
                <rect id="icon-bg" fill="#F5F5F5" opacity="0" x="0" y="0" width="24" height="24"></rect>
                <g id="icon-search" transform="translate(2.000000, 3.000000)" fill="#454553" fill-rule="nonzero">
                    <g id="Page-1">
                        <path d="M4.29483379,4.29447975 C1.90218874,6.68798454 1.90218874,10.5670155 4.29457975,12.9602662 C6.68808454,15.3529113 10.5671155,15.3529113 12.9603662,12.9605202 C15.3529689,10.5670578 15.3530113,6.6881218 12.9604932,4.29460679 C10.5669782,1.90208874 6.6880422,1.90213106 4.29483379,4.29447975 Z M14.3745526,2.88026621 C17.5481554,6.05501546 17.5481554,11.1999845 14.3745526,14.3747338 C11.2000636,17.5480887 6.05510461,17.5480887 2.88036156,14.3744798 C-0.292987188,11.1999845 -0.292987188,6.05501546 2.8806156,2.88026621 C6.05510461,-0.293088738 11.2000636,-0.293088738 14.3745526,2.88026621 Z" id="Stroke-1"></path>
                        <path d="M18.2073068,16.7929932 C18.5978311,17.1835175 18.5978311,17.8166825 18.2073068,18.2072068 C17.8167825,18.5977311 17.1836175,18.5977311 16.7930932,18.2072068 L12.9600932,14.3742068 C12.5695689,13.9836825 12.5695689,13.3505175 12.9600932,12.9599932 C13.3506175,12.5694689 13.9837825,12.5694689 14.3743068,12.9599932 L18.2073068,16.7929932 Z" id="Stroke-3"></path>
                    </g>
                </g>
            </g>
        </g>
    </g>
</svg>